<?xml version="1.0" encoding="UTF-8" standalone="no"?>
<svg width="197px" height="823px" viewBox="0 0 197 823" version="1.1" xmlns="http://www.w3.org/2000/svg" xmlns:xlink="http://www.w3.org/1999/xlink" xmlns:sketch="http://www.bohemiancoding.com/sketch/ns">
    <!-- Generator: Sketch 3.3.3 (12081) - http://www.bohemiancoding.com/sketch -->
    <title>bubbles_left</title>
    <desc>Created with Sketch.</desc>
    <defs></defs>
    <g id="Page-1" stroke="none" stroke-width="1" fill="none" fill-rule="evenodd" sketch:type="MSPage">
        <g id="start_screen" sketch:type="MSArtboardGroup">
            <g id="bubbles_left" sketch:type="MSLayerGroup" transform="translate(-140.000000, -51.000000)">
                <path d="M240.5,0 C200.460227,0 168,32.4585795 168,72.5 C168,112.54142 200.460227,145 240.5,145 C280.54142,145 313,112.54142 313,72.5 C313,32.4585795 280.54142,0 240.5,0" id="Fill-2" fill="#ECF9FB" sketch:type="MSShapeGroup"></path>
                <path d="M71,173 C31.788186,173 0,204.788186 0,244 C0,283.211814 31.788186,315 71,315 C110.211814,315 142,283.211814 142,244 C142,204.788186 110.211814,173 71,173" id="Fill-3" fill="#F6FCFD" sketch:type="MSShapeGroup"></path>
                <path d="M227,219 C214.297429,219 204,229.297429 204,242 C204,254.702571 214.297429,265 227,265 C239.702571,265 250,254.702571 250,242 C250,229.297429 239.702571,219 227,219" id="Fill-4" fill="#EFF9FB" sketch:type="MSShapeGroup"></path>
                <path d="M143,323 C124.7741,323 110,337.7741 110,356 C110,374.2259 124.7741,389 143,389 C161.2259,389 176,374.2259 176,356 C176,337.7741 161.2259,323 143,323" id="Fill-5" fill="#CFEEF6" sketch:type="MSShapeGroup"></path>
                <path d="M250.5,348 C238.625385,348 229,357.625385 229,369.5 C229,381.374615 238.625385,391 250.5,391 C262.374615,391 272,381.374615 272,369.5 C272,357.625385 262.374615,348 250.5,348" id="Fill-6" fill="#EBF8FA" sketch:type="MSShapeGroup"></path>
                <path d="M312.5,406 C298.969467,406 288,416.969467 288,430.5 C288,444.030533 298.969467,455 312.5,455 C326.030533,455 337,444.030533 337,430.5 C337,416.969467 326.030533,406 312.5,406" id="Fill-7" fill="#EFF9FB" sketch:type="MSShapeGroup"></path>
                <path d="M288,574 C269.7741,574 255,588.7741 255,607 C255,625.2259 269.7741,640 288,640 C306.2259,640 321,625.2259 321,607 C321,588.7741 306.2259,574 288,574" id="Fill-9" fill="#EFF9FB" sketch:type="MSShapeGroup"></path>
                <path d="M176.5,513 C170.148714,513 165,518.148714 165,524.5 C165,530.851286 170.148714,536 176.5,536 C182.851286,536 188,530.851286 188,524.5 C188,518.148714 182.851286,513 176.5,513" id="Fill-10" fill="#E5F7F9" sketch:type="MSShapeGroup"></path>
                <path d="M135,778 C108.490759,778 87,799.490759 87,826 C87,852.509241 108.490759,874 135,874 C161.509241,874 183,852.509241 183,826 C183,799.490759 161.509241,778 135,778" id="Fill-11" fill="#E9F8FA" sketch:type="MSShapeGroup"></path>
                <path d="M143.5,671 C127.207806,671 114,684.207806 114,700.5 C114,716.792194 127.207806,730 143.5,730 C159.792194,730 173,716.792194 173,700.5 C173,684.207806 159.792194,671 143.5,671" id="Fill-12" fill="#ECF9FB" sketch:type="MSShapeGroup"></path>
                <path d="M244.5,455 C261.896289,455 276,469.103711 276,486.5 C276,503.896289 261.896289,518 244.5,518 C227.103711,518 213,503.896289 213,486.5 C213,469.103711 227.103711,455 244.5,455" id="Fill-16" fill="#FECD55" sketch:type="MSShapeGroup"></path>
                <path d="M266,509.006633 C260.375356,514.570481 252.676143,518 244.184194,518 C226.962313,518 213,503.892206 213,486.490879 C213,474.686567 219.425585,464.39801 228.933482,459 C223.152917,464.719735 219.565094,472.694859 219.565094,481.515755 C219.565094,498.917081 233.527406,513.024876 250.749288,513.024876 C256.288585,513.024876 261.491422,511.565506 266,509.006633" id="Fill-17" fill="#F7BB43" sketch:type="MSShapeGroup"></path>
                <path d="M242.319102,473.102368 C244.138656,472.607662 246.141536,473.953911 246.794314,476.106286 C247.445379,478.258661 246.499622,480.404548 244.680068,480.897632 C242.860513,481.392338 240.857633,480.046089 240.206568,477.893714 C239.55379,475.741339 240.499547,473.595452 242.319102,473.102368" id="Fill-18" fill="#303030" sketch:type="MSShapeGroup"></path>
                <path d="M266.702625,482 C266.897625,482.904 267,483.8432 267,484.8064 C267,492.0928 261.11425,498 253.85375,498 C247.54225,498 242.269125,493.5344 241,487.5792 C243.782,488.9088 246.9865,489.6672 250.39575,489.6672 C257.24025,489.6672 263.256,486.6128 266.702625,482" id="Fill-19" fill="#303030" sketch:type="MSShapeGroup"></path>
                <path d="M258.911581,470.028762 C260.252707,469.783056 261.603892,471.138791 261.929115,473.05564 C262.254338,474.970746 261.429546,476.723791 260.088419,476.971238 C258.747293,477.216944 257.396108,475.861209 257.070885,473.94436 C256.745662,472.029254 257.570454,470.276209 258.911581,470.028762" id="Fill-20" fill="#303030" sketch:type="MSShapeGroup"></path>
            </g>
        </g>
    </g>
</svg>