<?xml version="1.0" encoding="UTF-8" standalone="no"?>
<svg width="166px" height="1005px" viewBox="0 0 166 1005" version="1.1" xmlns="http://www.w3.org/2000/svg" xmlns:xlink="http://www.w3.org/1999/xlink" xmlns:sketch="http://www.bohemiancoding.com/sketch/ns">
    <!-- Generator: Sketch 3.3.3 (12081) - http://www.bohemiancoding.com/sketch -->
    <title>bubbles_left</title>
    <desc>Created with Sketch.</desc>
    <defs></defs>
    <g id="Page-1" stroke="none" stroke-width="1" fill="none" fill-rule="evenodd" sketch:type="MSPage">
        <g id="start_screen" sketch:type="MSArtboardGroup" transform="translate(-1754.000000, -74.000000)">
            <g id="bubbles_left" sketch:type="MSLayerGroup" transform="translate(1754.000000, 74.000000)">
                <path d="M157,0 C137.117714,0 121,16.1177143 121,36 C121,55.8822857 137.117714,72 157,72 C176.882286,72 193,55.8822857 193,36 C193,16.1177143 176.882286,0 157,0" id="Fill-1" fill="#EFF9FB" sketch:type="MSShapeGroup"></path>
                <path d="M191,115 C171.117714,115 155,131.117714 155,151 C155,170.882286 171.117714,187 191,187 C210.882286,187 227,170.882286 227,151 C227,131.117714 210.882286,115 191,115" id="Fill-2" fill="#DFF3F9" sketch:type="MSShapeGroup"></path>
                <path d="M165,201 C152.849529,201 143,210.849529 143,223 C143,235.150471 152.849529,245 165,245 C177.150471,245 187,235.150471 187,223 C187,210.849529 177.150471,201 165,201" id="Fill-3" fill="#EFF9FB" sketch:type="MSShapeGroup"></path>
                <path d="M121,288 C113.268182,288 107,294.268182 107,302 C107,309.731818 113.268182,316 121,316 C128.731818,316 135,309.731818 135,302 C135,294.268182 128.731818,288 121,288" id="Fill-4" fill="#CFEEF6" sketch:type="MSShapeGroup"></path>
                <path d="M177,353 C184.731818,353 191,359.268182 191,367 C191,374.731818 184.731818,381 177,381 C169.268182,381 163,374.731818 163,367 C163,359.268182 169.268182,353 177,353" id="Fill-5" fill="#BFE8F1" sketch:type="MSShapeGroup"></path>
                <path d="M121,396 C113.268182,396 107,402.268182 107,410 C107,417.731818 113.268182,424 121,424 C128.731818,424 135,417.731818 135,410 C135,402.268182 128.731818,396 121,396" id="Fill-6" fill="#EFF9FB" sketch:type="MSShapeGroup"></path>
                <path d="M40.5,472 C45.7465333,472 50,476.253467 50,481.5 C50,486.746533 45.7465333,491 40.5,491 C35.2534667,491 31,486.746533 31,481.5 C31,476.253467 35.2534667,472 40.5,472" id="Fill-7" fill="#BFE8F1" sketch:type="MSShapeGroup"></path>
                <path d="M70.5,571 C50.8936727,571 35,586.893673 35,606.5 C35,626.106327 50.8936727,642 70.5,642 C90.1063273,642 106,626.106327 106,606.5 C106,586.893673 90.1063273,571 70.5,571" id="Fill-8" fill="#DFF3F9" sketch:type="MSShapeGroup"></path>
                <path d="M153,535 C139.745514,535 129,545.745514 129,559 C129,572.254486 139.745514,583 153,583 C166.254486,583 177,572.254486 177,559 C177,545.745514 166.254486,535 153,535" id="Fill-9" fill="#EFF9FB" sketch:type="MSShapeGroup"></path>
                <path d="M159,451 C172.254486,451 183,461.745514 183,475 C183,488.254486 172.254486,499 159,499 C145.745514,499 135,488.254486 135,475 C135,461.745514 145.745514,451 159,451" id="Fill-10" fill="#BFE8F1" sketch:type="MSShapeGroup"></path>
                <path d="M142,664 C112.176571,664 88,688.176571 88,718 C88,747.823429 112.176571,772 142,772 C171.823429,772 196,747.823429 196,718 C196,688.176571 171.823429,664 142,664" id="Fill-11" fill="#EFF9FB" sketch:type="MSShapeGroup"></path>
                <path d="M55,798 C35.1177143,798 19,814.117714 19,834 C19,853.882286 35.1177143,870 55,870 C74.8822857,870 91,853.882286 91,834 C91,814.117714 74.8822857,798 55,798" id="Fill-12" fill="#DFF3F9" sketch:type="MSShapeGroup"></path>
                <path d="M9.5,687 C4.25346667,687 0,691.253467 0,696.5 C0,701.746533 4.25346667,706 9.5,706 C14.7465333,706 19,701.746533 19,696.5 C19,691.253467 14.7465333,687 9.5,687" id="Fill-13" fill="#EFF9FB" sketch:type="MSShapeGroup"></path>
                <path d="M121.5,841 C110.7308,841 102,849.7308 102,860.5 C102,871.2692 110.7308,880 121.5,880 C132.2692,880 141,871.2692 141,860.5 C141,849.7308 132.2692,841 121.5,841" id="Fill-14" fill="#EFF9FB" sketch:type="MSShapeGroup"></path>
                <path d="M143,907 C151.283913,907 158,913.716087 158,922 C158,930.283913 151.283913,937 143,937 C134.716087,937 128,930.283913 128,922 C128,913.716087 134.716087,907 143,907" id="Fill-15" fill="#BFE8F1" sketch:type="MSShapeGroup"></path>
                <path d="M103,938 C95.8201,938 90,943.8201 90,951 C90,958.1799 95.8201,964 103,964 C110.1799,964 116,958.1799 116,951 C116,943.8201 110.1799,938 103,938" id="Fill-16" fill="#CFEEF6" sketch:type="MSShapeGroup"></path>
                <path d="M63,979 C55.8201,979 50,984.8201 50,992 C50,999.1799 55.8201,1005 63,1005 C70.1799,1005 76,999.1799 76,992 C76,984.8201 70.1799,979 63,979" id="Fill-17" fill="#EFF9FB" sketch:type="MSShapeGroup"></path>
            </g>
        </g>
    </g>
</svg>