<?xml version="1.0" encoding="UTF-8" standalone="no"?>
<svg width="510px" height="597px" viewBox="0 0 510 597" version="1.1" xmlns="http://www.w3.org/2000/svg" xmlns:xlink="http://www.w3.org/1999/xlink" xmlns:sketch="http://www.bohemiancoding.com/sketch/ns">
    <!-- Generator: Sketch 3.3.3 (12081) - http://www.bohemiancoding.com/sketch -->
    <title>logo copy</title>
    <desc>Created with Sketch.</desc>
    <defs></defs>
    <g id="Page-1" stroke="none" stroke-width="1" fill="none" fill-rule="evenodd" sketch:type="MSPage">
        <g id="countdown_5" sketch:type="MSArtboardGroup" transform="translate(-705.000000, -240.000000)" fill="#00A5C9">
            <g id="logo-copy" sketch:type="MSLayerGroup" transform="translate(705.000000, 240.000000)">
                <path d="M56.1,463.536585 C60.3257143,463.536585 63.75,466.97561 63.75,471.219512 C63.75,475.463415 60.3257143,478.902439 56.1,478.902439 C51.8742857,478.902439 48.45,475.463415 48.45,471.219512 C48.45,466.97561 51.8742857,463.536585 56.1,463.536585" id="Fill-1" sketch:type="MSShapeGroup"></path>
                <path d="M124.95,491.707317 C139.033286,491.707317 150.45,503.173171 150.45,517.317073 C150.45,531.460976 139.033286,542.926829 124.95,542.926829 C110.866714,542.926829 99.45,531.460976 99.45,517.317073 C99.45,503.173171 110.866714,491.707317 124.95,491.707317" id="Fill-2" sketch:type="MSShapeGroup"></path>
                <path d="M140.25,576.219512 C145.881857,576.219512 150.45,580.807317 150.45,586.463415 C150.45,592.119512 145.881857,596.707317 140.25,596.707317 C134.618143,596.707317 130.05,592.119512 130.05,586.463415 C130.05,580.807317 134.618143,576.219512 140.25,576.219512" id="Fill-3" sketch:type="MSShapeGroup"></path>
                <path d="M239.7,519.878049 C249.557571,519.878049 257.55,527.904878 257.55,537.804878 C257.55,547.704878 249.557571,555.731707 239.7,555.731707 C229.842429,555.731707 221.85,547.704878 221.85,537.804878 C221.85,527.904878 229.842429,519.878049 239.7,519.878049" id="Fill-4" sketch:type="MSShapeGroup"></path>
                <path d="M311.1,509.634146 C329.409,509.634146 344.25,524.539024 344.25,542.926829 C344.25,561.314634 329.409,576.219512 311.1,576.219512 C292.791,576.219512 277.95,561.314634 277.95,542.926829 C277.95,524.539024 292.791,509.634146 311.1,509.634146" id="Fill-5" sketch:type="MSShapeGroup"></path>
                <path d="M178.5,512.195122 C182.725714,512.195122 186.15,515.634146 186.15,519.878049 C186.15,524.121951 182.725714,527.560976 178.5,527.560976 C174.274286,527.560976 170.85,524.121951 170.85,519.878049 C170.85,515.634146 174.274286,512.195122 178.5,512.195122" id="Fill-6" sketch:type="MSShapeGroup"></path>
                <path d="M433.5,409.756098 C444.767357,409.756098 453.9,418.928049 453.9,430.243902 C453.9,441.559756 444.767357,450.731707 433.5,450.731707 C422.232643,450.731707 413.1,441.559756 413.1,430.243902 C413.1,418.928049 422.232643,409.756098 433.5,409.756098" id="Fill-7" sketch:type="MSShapeGroup"></path>
                <path d="M362.1,468.658537 C366.325714,468.658537 369.75,472.097561 369.75,476.341463 C369.75,480.585366 366.325714,484.02439 362.1,484.02439 C357.874286,484.02439 354.45,480.585366 354.45,476.341463 C354.45,472.097561 357.874286,468.658537 362.1,468.658537" id="Fill-8" sketch:type="MSShapeGroup"></path>
                <path d="M359.55,494.268293 C362.365929,494.268293 364.65,496.562195 364.65,499.390244 C364.65,502.218293 362.365929,504.512195 359.55,504.512195 C356.734071,504.512195 354.45,502.218293 354.45,499.390244 C354.45,496.562195 356.734071,494.268293 359.55,494.268293" id="Fill-9" sketch:type="MSShapeGroup"></path>
                <path d="M392.7,450.731707 C396.925714,450.731707 400.35,454.170732 400.35,458.414634 C400.35,462.658537 396.925714,466.097561 392.7,466.097561 C388.474286,466.097561 385.05,462.658537 385.05,458.414634 C385.05,454.170732 388.474286,450.731707 392.7,450.731707" id="Fill-10" sketch:type="MSShapeGroup"></path>
                <path d="M420.75,466.097561 C423.565929,466.097561 425.85,468.391463 425.85,471.219512 C425.85,474.047561 423.565929,476.341463 420.75,476.341463 C417.934071,476.341463 415.65,474.047561 415.65,471.219512 C415.65,468.391463 417.934071,466.097561 420.75,466.097561" id="Fill-11" sketch:type="MSShapeGroup"></path>
                <path d="M438.6,476.341463 C442.825714,476.341463 446.25,479.780488 446.25,484.02439 C446.25,488.268293 442.825714,491.707317 438.6,491.707317 C434.374286,491.707317 430.95,488.268293 430.95,484.02439 C430.95,479.780488 434.374286,476.341463 438.6,476.341463" id="Fill-12" sketch:type="MSShapeGroup"></path>
                <path d="M459,361.097561 C468.857571,361.097561 476.85,369.12439 476.85,379.02439 C476.85,388.92439 468.857571,396.95122 459,396.95122 C449.142429,396.95122 441.15,388.92439 441.15,379.02439 C441.15,369.12439 449.142429,361.097561 459,361.097561" id="Fill-13" sketch:type="MSShapeGroup"></path>
                <path d="M484.5,394.390244 C488.725714,394.390244 492.15,397.829268 492.15,402.073171 C492.15,406.317073 488.725714,409.756098 484.5,409.756098 C480.274286,409.756098 476.85,406.317073 476.85,402.073171 C476.85,397.829268 480.274286,394.390244 484.5,394.390244" id="Fill-14" sketch:type="MSShapeGroup"></path>
                <path d="M504.9,371.341463 C507.715929,371.341463 510,373.635366 510,376.463415 C510,379.291463 507.715929,381.585366 504.9,381.585366 C502.084071,381.585366 499.8,379.291463 499.8,376.463415 C499.8,373.635366 502.084071,371.341463 504.9,371.341463" id="Fill-15" sketch:type="MSShapeGroup"></path>
                <path d="M492.15,345.731707 C497.781857,345.731707 502.35,350.319512 502.35,355.97561 C502.35,361.631707 497.781857,366.219512 492.15,366.219512 C486.518143,366.219512 481.95,361.631707 481.95,355.97561 C481.95,350.319512 486.518143,345.731707 492.15,345.731707" id="Fill-16" sketch:type="MSShapeGroup"></path>
                <path d="M469.2,307.317073 C477.651429,307.317073 484.5,314.195122 484.5,322.682927 C484.5,331.170732 477.651429,338.04878 469.2,338.04878 C460.748571,338.04878 453.9,331.170732 453.9,322.682927 C453.9,314.195122 460.748571,307.317073 469.2,307.317073" id="Fill-17" sketch:type="MSShapeGroup"></path>
                <path d="M499.8,289.390244 C505.431857,289.390244 510,293.978049 510,299.634146 C510,305.290244 505.431857,309.878049 499.8,309.878049 C494.168143,309.878049 489.6,305.290244 489.6,299.634146 C489.6,293.978049 494.168143,289.390244 499.8,289.390244" id="Fill-18" sketch:type="MSShapeGroup"></path>
                <path d="M453.9,284.268293 C458.125714,284.268293 461.55,287.707317 461.55,291.95122 C461.55,296.195122 458.125714,299.634146 453.9,299.634146 C449.674286,299.634146 446.25,296.195122 446.25,291.95122 C446.25,287.707317 449.674286,284.268293 453.9,284.268293" id="Fill-19" sketch:type="MSShapeGroup"></path>
                <path d="M469.2,253.536585 C474.831857,253.536585 479.4,258.12439 479.4,263.780488 C479.4,269.436585 474.831857,274.02439 469.2,274.02439 C463.568143,274.02439 459,269.436585 459,263.780488 C459,258.12439 463.568143,253.536585 469.2,253.536585" id="Fill-20" sketch:type="MSShapeGroup"></path>
                <path d="M484.5,215.121951 C490.131857,215.121951 494.7,219.709756 494.7,225.365854 C494.7,231.021951 490.131857,235.609756 484.5,235.609756 C478.868143,235.609756 474.3,231.021951 474.3,225.365854 C474.3,219.709756 478.868143,215.121951 484.5,215.121951" id="Fill-21" sketch:type="MSShapeGroup"></path>
                <path d="M474.3,163.902439 C479.931857,163.902439 484.5,168.490244 484.5,174.146341 C484.5,179.802439 479.931857,184.390244 474.3,184.390244 C468.668143,184.390244 464.1,179.802439 464.1,174.146341 C464.1,168.490244 468.668143,163.902439 474.3,163.902439" id="Fill-22" sketch:type="MSShapeGroup"></path>
                <path d="M448.8,186.95122 C454.431857,186.95122 459,191.539024 459,197.195122 C459,202.85122 454.431857,207.439024 448.8,207.439024 C443.168143,207.439024 438.6,202.85122 438.6,197.195122 C438.6,191.539024 443.168143,186.95122 448.8,186.95122" id="Fill-23" sketch:type="MSShapeGroup"></path>
                <path d="M433.5,133.170732 C440.541643,133.170732 446.25,138.903659 446.25,145.97561 C446.25,153.047561 440.541643,158.780488 433.5,158.780488 C426.458357,158.780488 420.75,153.047561 420.75,145.97561 C420.75,138.903659 426.458357,133.170732 433.5,133.170732" id="Fill-24" sketch:type="MSShapeGroup"></path>
                <path d="M415.65,99.8780488 C421.281857,99.8780488 425.85,104.465854 425.85,110.121951 C425.85,115.778049 421.281857,120.365854 415.65,120.365854 C410.018143,120.365854 405.45,115.778049 405.45,110.121951 C405.45,104.465854 410.018143,99.8780488 415.65,99.8780488" id="Fill-25" sketch:type="MSShapeGroup"></path>
                <path d="M385.05,92.195122 C389.275714,92.195122 392.7,95.6341463 392.7,99.8780488 C392.7,104.121951 389.275714,107.560976 385.05,107.560976 C380.824286,107.560976 377.4,104.121951 377.4,99.8780488 C377.4,95.6341463 380.824286,92.195122 385.05,92.195122" id="Fill-26" sketch:type="MSShapeGroup"></path>
                <path d="M369.75,25.6097561 C382.4235,25.6097561 392.7,35.9304878 392.7,48.6585366 C392.7,61.3865854 382.4235,71.7073171 369.75,71.7073171 C357.0765,71.7073171 346.8,61.3865854 346.8,48.6585366 C346.8,35.9304878 357.0765,25.6097561 369.75,25.6097561" id="Fill-27" sketch:type="MSShapeGroup"></path>
                <path d="M311.1,33.2926829 C319.551429,33.2926829 326.4,40.1707317 326.4,48.6585366 C326.4,57.1463415 319.551429,64.0243902 311.1,64.0243902 C302.648571,64.0243902 295.8,57.1463415 295.8,48.6585366 C295.8,40.1707317 302.648571,33.2926829 311.1,33.2926829" id="Fill-28" sketch:type="MSShapeGroup"></path>
                <path d="M272.85,0 C279.891643,0 285.6,5.73292683 285.6,12.804878 C285.6,19.8768293 279.891643,25.6097561 272.85,25.6097561 C265.808357,25.6097561 260.1,19.8768293 260.1,12.804878 C260.1,5.73292683 265.808357,0 272.85,0" id="Fill-29" sketch:type="MSShapeGroup"></path>
                <path d="M244.8,25.6097561 C250.431857,25.6097561 255,30.197561 255,35.8536585 C255,41.5097561 250.431857,46.097561 244.8,46.097561 C239.168143,46.097561 234.6,41.5097561 234.6,35.8536585 C234.6,30.197561 239.168143,25.6097561 244.8,25.6097561" id="Fill-30" sketch:type="MSShapeGroup"></path>
                <path d="M209.1,28.1707317 C213.325714,28.1707317 216.75,31.6097561 216.75,35.8536585 C216.75,40.097561 213.325714,43.5365854 209.1,43.5365854 C204.874286,43.5365854 201.45,40.097561 201.45,35.8536585 C201.45,31.6097561 204.874286,28.1707317 209.1,28.1707317" id="Fill-31" sketch:type="MSShapeGroup"></path>
                <path d="M153,30.7317073 C157.225714,30.7317073 160.65,34.1707317 160.65,38.4146341 C160.65,42.6585366 157.225714,46.097561 153,46.097561 C148.774286,46.097561 145.35,42.6585366 145.35,38.4146341 C145.35,34.1707317 148.774286,30.7317073 153,30.7317073" id="Fill-32" sketch:type="MSShapeGroup"></path>
                <path d="M216.75,61 C336.457929,61 433.5,158.459756 433.5,278.682927 C433.5,398.906098 336.457929,496.365854 216.75,496.365854 C97.0420714,496.365854 0,398.906098 0,278.682927 C0,158.459756 97.0420714,61 216.75,61" id="Fill-33" sketch:type="MSShapeGroup"></path>
            </g>
        </g>
    </g>
</svg>