<?xml version="1.0" encoding="UTF-8" standalone="no"?>
<svg width="48px" height="66px" viewBox="0 0 48 66" version="1.1" xmlns="http://www.w3.org/2000/svg" xmlns:xlink="http://www.w3.org/1999/xlink" xmlns:sketch="http://www.bohemiancoding.com/sketch/ns">
    <!-- Generator: Sketch 3.3.3 (12081) - http://www.bohemiancoding.com/sketch -->
    <title>Imported Layers</title>
    <desc>Created with Sketch.</desc>
    <defs></defs>
    <g id="Page-1" stroke="none" stroke-width="1" fill="none" fill-rule="evenodd" sketch:type="MSPage">
        <g id="leaderboard" sketch:type="MSArtboardGroup" transform="translate(-413.000000, -352.000000)">
            <g id="Imported-Layers" sketch:type="MSLayerGroup" transform="translate(413.000000, 352.517241)">
                <path d="M26.1818276,21.3876207 C38.1963103,21.3876207 47.9359655,31.1272759 47.9359655,43.1418621 C47.9359655,55.1563448 38.1963103,64.896 26.1818276,64.896 C14.1672414,64.896 4.42758621,55.1563448 4.42758621,43.1418621 C4.42758621,31.1272759 14.1672414,21.3876207 26.1818276,21.3876207" id="Fill-1" fill="#F9C95A" sketch:type="MSShapeGroup"></path>
                <path d="M41.4001034,58.6868276 C37.4770345,62.5279655 32.106,64.896 26.1818276,64.896 C14.1672414,64.896 4.42758621,55.1563448 4.42758621,43.1418621 C4.42758621,34.9916897 8.90958621,27.8882069 15.5432069,24.162 C11.5101724,28.1108276 9.00744828,33.6166552 9.00744828,39.7069655 C9.00744828,51.7214483 18.7471034,61.4611034 30.7615862,61.4611034 C34.6258966,61.4611034 38.2548621,60.4536207 41.4001034,58.6868276" id="Fill-2" fill="#EEB649" sketch:type="MSShapeGroup"></path>
                <path d="M25.3928276,34.0930345 C26.6085517,33.7444138 27.9472759,34.6937586 28.383,36.2133103 C28.8187241,37.7329655 28.1864483,39.2474483 26.9707241,39.596069 C25.7551034,39.9446897 24.4163793,38.9953448 23.9805517,37.4757931 C23.5448276,35.9561379 24.1771034,34.4416552 25.3928276,34.0930345" id="Fill-3" fill="#2B2B29" sketch:type="MSShapeGroup"></path>
                <path d="M42.6574138,39.9491379 C42.7947931,40.596 42.8672069,41.2675862 42.8672069,41.9563448 C42.8672069,47.1711724 38.7203793,51.3987931 33.6049655,51.3987931 C29.1575172,51.3987931 25.442069,48.2029655 24.5478621,43.941 C26.5085172,44.892931 28.7655517,45.4351034 31.1676207,45.4351034 C35.9906897,45.4351034 40.2295862,43.2491379 42.6574138,39.9491379" id="Fill-4" fill="#2B2B29" sketch:type="MSShapeGroup"></path>
                <path d="M36.6567931,31.7020345 C37.5728276,31.5405517 38.4953793,32.4304138 38.7174828,33.6896897 C38.9394828,34.9489655 38.376931,36.1007586 37.4608966,36.2623448 C36.5449655,36.4238276 35.6223103,35.5339655 35.4003103,34.2745862 C35.1783103,33.0153103 35.7408621,31.8635172 36.6567931,31.7020345" id="Fill-5" fill="#2B2B29" sketch:type="MSShapeGroup"></path>
                <path d="M10.8543103,27.7054138 L2.38055172,14.3320345 C2.38055172,14.3320345 11.2067586,17.694 13.1392759,15.7615862 C15.0716897,13.8291724 16.0268276,2.55393103 16.0268276,2.55393103 C16.0268276,2.55393103 22.5828621,12.7885862 24.8603793,12.7885862 C27.1378966,12.7885862 33.6370345,6.40396552 33.6370345,6.40396552 L33.7074828,22.7247931 C26.2353103,21.2403103 15.7566207,22.8031034 10.8543103,27.7054138" id="Fill-6" fill="#D39F4E" sketch:type="MSShapeGroup"></path>
                <path d="M10.8543103,27.7054138 L2.38055172,14.3320345 C2.38055172,14.3320345 11.2067586,17.694 13.1392759,15.7615862 C15.0716897,13.8291724 16.0268276,2.55393103 16.0268276,2.55393103 C16.0268276,2.55393103 22.5828621,12.7885862 24.8603793,12.7885862 C27.1378966,12.7885862 33.6370345,6.40396552 33.6370345,6.40396552 L33.7074828,22.7247931 C26.2353103,21.2403103 15.7566207,22.8031034 10.8543103,27.7054138" id="Fill-7" fill="#D39F4E" sketch:type="MSShapeGroup"></path>
                <path d="M7.75862069,22.823069 L9.61996552,25.7607931 C14.7605172,20.6202414 25.8465517,18.7192759 33.6818276,20.2758621 L33.6818276,16.7844828 C22.8276207,14.5992414 12.8275862,17.5862069 7.75862069,22.823069" id="Fill-8" fill="#E15B67" sketch:type="MSShapeGroup"></path>
                <path d="M33.6370345,6.40396552 C33.6370345,6.40396552 27.1378966,12.7885862 24.8603793,12.7885862 C22.5828621,12.7885862 16.0268276,2.55393103 16.0268276,2.55393103 C16.0268276,2.55393103 15.0716897,13.8291724 13.1392759,15.7615862 C11.2067586,17.694 2.38055172,14.3321379 2.38055172,14.3321379 L10.8543103,27.7054138 C11.919,26.6407241 13.2469655,25.7337931 14.7497586,24.9811034 C14.7497586,24.9811034 14.7497586,24.981 14.7498621,24.9808966 C14.7498621,24.9808966 21.8311034,16.5921724 33.6577241,11.2069655 L33.6370345,6.40396552" id="Fill-9" fill="#CF913B" sketch:type="MSShapeGroup"></path>
                <path d="M7.75986207,22.8218276 L9.62131034,25.7595517 C11.8307586,23.5507241 15.1382069,21.9407586 18.8134138,20.9457931 C20.4398276,19.4988621 22.5275172,17.8016897 25.026931,16.0941724 C17.7136552,16.4080345 11.4385862,19.0221724 7.75986207,22.8218276" id="Fill-10" fill="#C9434E" sketch:type="MSShapeGroup"></path>
                <path d="M15.3903103,0.280551724 C16.929931,-0.109965517 18.5329655,0.972827586 18.9708621,2.69906897 C19.4087586,4.42541379 18.5155862,6.14141379 16.9759655,6.53193103 C15.4363448,6.92244828 13.8333103,5.83955172 13.3954138,4.11331034 C12.9575172,2.38706897 13.8506897,0.671068966 15.3903103,0.280551724" id="Fill-11" fill="#CF913B" sketch:type="MSShapeGroup"></path>
                <path d="M15.3903103,0.177103448 C16.929931,-0.213413793 18.5329655,0.86937931 18.9708621,2.59562069 C19.4087586,4.32196552 18.5155862,6.03796552 16.9759655,6.42848276 C15.4363448,6.819 13.8333103,5.73610345 13.3954138,4.00986207 C12.9575172,2.28362069 13.8506897,0.56762069 15.3903103,0.177103448" id="Fill-12" fill="#CF913B" sketch:type="MSShapeGroup"></path>
                <path d="M15.7006552,1.50424138 C16.4973103,1.30210345 17.3591379,1.98993103 17.6256207,3.04034483 C17.8921034,4.09075862 17.4621724,5.1062069 16.6655172,5.30824138 C15.8688621,5.51037931 15.0070345,4.82255172 14.7405517,3.77213793 C14.474069,2.72162069 14.904,1.70627586 15.7006552,1.50424138" id="Fill-13" fill="#E15B67" sketch:type="MSShapeGroup"></path>
                <path d="M15.7006552,1.50424138 C16.4973103,1.30210345 14.3157931,3.04510345 16.6655172,5.30824138 C16.6655172,5.30824138 15.2451724,5.66503448 14.7405517,3.77213793 C14.4614483,2.72503448 14.904,1.70627586 15.7006552,1.50424138" id="Fill-14" fill="#C9434E" sketch:type="MSShapeGroup"></path>
                <path d="M34.7605862,3.34603448 C35.8352069,3.76168966 36.1794828,5.46072414 35.5295172,7.14093103 C34.8795517,8.82113793 33.4814483,9.8462069 32.4068276,9.43055172 C31.3322069,9.0147931 30.987931,7.31575862 31.6378966,5.63555172 C32.2878621,3.95534483 33.6859655,2.93027586 34.7605862,3.34603448" id="Fill-15" fill="#CF913B" sketch:type="MSShapeGroup"></path>
                <path d="M34.7934828,4.76306897 C35.198069,4.91958621 35.205931,5.87410345 34.811069,6.89493103 C34.4161034,7.91586207 33.7678966,8.61662069 33.3633103,8.46010345 C32.9586207,8.30358621 32.9508621,7.34906897 33.3457241,6.32813793 C33.7406897,5.30731034 34.3887931,4.60655172 34.7934828,4.76306897" id="Fill-16" fill="#E15B67" sketch:type="MSShapeGroup"></path>
                <path d="M0.338068966,12.3834828 C0.950793103,11.6872759 2.26924138,11.8461724 3.28303448,12.7383103 C4.29682759,13.6305517 4.62196552,14.9181724 4.00924138,15.6143793 C3.39662069,16.3104828 2.07806897,16.1515862 1.06427586,15.2594483 C0.0505862069,14.3672069 -0.274551724,13.0795862 0.338068966,12.3834828" id="Fill-17" fill="#CF913B" sketch:type="MSShapeGroup"></path>
            </g>
        </g>
    </g>
</svg>