<?xml version="1.0" encoding="UTF-8" standalone="no"?>
<svg width="140px" height="164px" viewBox="0 0 140 164" version="1.1" xmlns="http://www.w3.org/2000/svg" xmlns:xlink="http://www.w3.org/1999/xlink" xmlns:sketch="http://www.bohemiancoding.com/sketch/ns">
    <!-- Generator: Sketch 3.3.2 (12043) - http://www.bohemiancoding.com/sketch -->
    <title>Group + logo copy 2</title>
    <desc>Created with Sketch.</desc>
    <defs></defs>
    <g id="homepage" stroke="none" stroke-width="1" fill="none" fill-rule="evenodd" sketch:type="MSPage">
        <g sketch:type="MSArtboardGroup" transform="translate(-80.000000, -30.000000)" id="Group-+-logo-copy-2">
            <g sketch:type="MSLayerGroup" transform="translate(80.000000, 30.000000)">
                <g id="Group" fill="#00A5C9" sketch:type="MSShapeGroup">
                    <circle id="Oval-1" cx="15.4" cy="128.8" r="2.1"></circle>
                    <circle id="Oval-2" cx="34.3" cy="141.4" r="7"></circle>
                    <ellipse id="Oval-3" cx="38.5" cy="160.3" rx="2.8" ry="2.8"></ellipse>
                    <ellipse id="Oval-4" cx="65.8" cy="147" rx="4.9" ry="4.9"></ellipse>
                    <circle id="Oval-5" cx="85.4" cy="148.4" r="9.1"></circle>
                    <circle id="Oval-6" cx="49" cy="142.1" r="2.1"></circle>
                    <ellipse id="Oval-7" cx="119" cy="117.6" rx="5.6" ry="5.6"></ellipse>
                    <circle id="Oval-8" cx="99.4" cy="130.2" r="2.1"></circle>
                    <ellipse id="Oval-9" cx="98.7" cy="136.5" rx="1.4" ry="1.4"></ellipse>
                    <circle id="Oval-10" cx="107.8" cy="125.3" r="2.1"></circle>
                    <ellipse id="Oval-11" cx="115.5" cy="128.8" rx="1.4" ry="1.4"></ellipse>
                    <circle id="Oval-12" cx="120.4" cy="132.3" r="2.1"></circle>
                    <ellipse id="Oval-13" cx="126" cy="103.6" rx="4.9" ry="4.9"></ellipse>
                    <circle id="Oval-14" cx="133" cy="109.9" r="2.1"></circle>
                    <ellipse id="Oval-15" cx="138.6" cy="102.9" rx="1.4" ry="1.4"></ellipse>
                    <ellipse id="Oval-16" cx="135.1" cy="97.3" rx="2.8" ry="2.8"></ellipse>
                    <circle id="Oval-17" cx="128.8" cy="88.2" r="4.2"></circle>
                    <ellipse id="Oval-18" cx="137.2" cy="81.9" rx="2.8" ry="2.8"></ellipse>
                    <circle id="Oval-19" cx="124.6" cy="79.8" r="2.1"></circle>
                    <ellipse id="Oval-20" cx="128.8" cy="72.1" rx="2.8" ry="2.8"></ellipse>
                    <ellipse id="Oval-21" cx="133" cy="61.6" rx="2.8" ry="2.8"></ellipse>
                    <ellipse id="Oval-22" cx="130.2" cy="47.6" rx="2.8" ry="2.8"></ellipse>
                    <ellipse id="Oval-23" cx="123.2" cy="53.9" rx="2.8" ry="2.8"></ellipse>
                    <circle id="Oval-24" cx="119" cy="39.9" r="3.5"></circle>
                    <ellipse id="Oval-25" cx="114.1" cy="30.1" rx="2.8" ry="2.8"></ellipse>
                    <circle id="Oval-26" cx="105.7" cy="27.3" r="2.1"></circle>
                    <ellipse id="Oval-27" cx="101.5" cy="13.3" rx="6.3" ry="6.3"></ellipse>
                    <circle id="Oval-28" cx="85.4" cy="13.3" r="4.2"></circle>
                    <circle id="Oval-29" cx="74.9" cy="3.5" r="3.5"></circle>
                    <ellipse id="Oval-30" cx="67.2" cy="9.8" rx="2.8" ry="2.8"></ellipse>
                    <circle id="Oval-31" cx="57.4" cy="9.8" r="2.1"></circle>
                    <circle id="Oval-32" cx="42" cy="10.5" r="2.1"></circle>
                    <ellipse id="Oval-33" cx="59.5" cy="76.3" rx="59.5" ry="59.5"></ellipse>
                </g>
                <g id="logo-copy-2" transform="translate(20.300000, 54.993750)" fill="#FFFFFF" sketch:type="MSShapeGroup">
                    <path d="M44.5974375,10.4042548 C44.5974375,11.9868269 43.3147212,13.2695433 41.732149,13.2695433 C40.1499471,13.2695433 38.8672308,11.9868269 38.8672308,10.4042548 C38.8672308,8.82205288 40.1499471,7.53933654 41.732149,7.53933654 C43.3147212,7.53933654 44.5974375,8.82205288 44.5974375,10.4042548" id="Fill-1"></path>
                    <path d="M46.7874952,15.621375 C46.7874952,16.4395 46.1241106,17.1025144 45.3059856,17.1025144 C44.4878606,17.1025144 43.824476,16.4395 43.824476,15.621375 C43.824476,14.80325 44.4878606,14.1398654 45.3059856,14.1398654 C46.1241106,14.1398654 46.7874952,14.80325 46.7874952,15.621375" id="Fill-2"></path>
                    <path d="M47.6100625,3.04372115 C47.6100625,4.70773558 46.2614519,6.05597596 44.5974375,6.05597596 C42.9334231,6.05597596 41.5848125,4.70773558 41.5848125,3.04372115 C41.5848125,1.37970673 42.9334231,0.0310961538 44.5974375,0.0310961538 C46.2614519,0.0310961538 47.6100625,1.37970673 47.6100625,3.04372115" id="Fill-3"></path>
                    <path d="M54.3320144,10.0492404 C54.3320144,12.2548462 52.5439856,14.0425048 50.33875,14.0425048 C48.1335144,14.0425048 46.3454856,12.2548462 46.3454856,10.0492404 C46.3454856,7.84363462 48.1335144,6.05597596 50.33875,6.05597596 C52.5439856,6.05597596 54.3320144,7.84363462 54.3320144,10.0492404" id="Fill-4"></path>
                    <path d="M0.179913462,21.07875 L3.50646154,21.07875 L3.50646154,27.6518846 C3.50646154,28.8816635 3.59086538,29.7349567 3.76004327,30.212875 C3.92885096,30.6915337 4.20094231,31.0628365 4.57557692,31.3278942 C4.94984135,31.5933221 5.41073077,31.7254808 5.95898558,31.7254808 C6.50687019,31.7254808 6.97146154,31.5951731 7.35461058,31.3341875 C7.73701923,31.0728317 8.02058654,30.6893125 8.20679327,30.1832596 C8.34339423,29.8056635 8.41187981,28.9979038 8.41187981,27.760351 L8.41187981,21.07875 L11.702149,21.07875 L11.702149,26.8926202 C11.702149,29.1826298 11.5214952,30.7492837 11.1594471,31.5933221 C10.7178077,32.6217163 10.0666394,33.4113365 9.20742308,33.9614423 C8.34746635,34.5119183 7.25465865,34.7873413 5.92862981,34.7873413 C4.49043269,34.7873413 3.32728846,34.4660144 2.43956731,33.8226202 C1.55147596,33.1803365 0.926961538,32.2844712 0.565283654,31.135024 C0.308,30.339851 0.179913462,28.8938798 0.179913462,26.7963702 L0.179913462,21.07875" id="Fill-5"></path>
                    <path d="M21.022851,23.1684856 L18.9860529,25.2052837 C18.1583029,24.3856779 17.4071827,23.9762452 16.7323221,23.9762452 C16.3625,23.9762452 16.07375,24.054726 15.8645913,24.2109471 C15.6554327,24.3675385 15.5514087,24.563 15.5514087,24.7954808 C15.5514087,24.9724327 15.6173029,25.1353173 15.7502019,25.2837644 C15.8823606,25.4325817 16.2099808,25.6354471 16.7323221,25.8919904 L17.9376683,26.4950337 C19.2070577,27.1217692 20.0788606,27.760351 20.5527067,28.411149 C21.0269231,29.0623173 21.2638462,29.8252837 21.2638462,30.7011587 C21.2638462,31.866524 20.836274,32.838649 19.9803894,33.6179038 C19.124875,34.3975288 17.977649,34.7873413 16.5398221,34.7873413 C14.6270385,34.7873413 13.1003654,34.0395529 11.9598029,32.5450865 L13.9843846,30.339851 C14.3697548,30.7896346 14.8225,31.1531635 15.340399,31.4304375 C15.8582981,31.7077115 16.3184471,31.8461635 16.720476,31.8461635 C17.1539712,31.8461635 17.5038029,31.7421394 17.7688606,31.5329808 C18.0339183,31.3238221 18.1664471,31.0831971 18.1664471,30.8099952 C18.1664471,30.3035721 17.6885288,29.8093654 16.7323221,29.327375 L15.623226,28.7731971 C13.5023942,27.7040817 12.4417933,26.3669471 12.4417933,24.7595721 C12.4417933,23.7230337 12.8412308,22.8367933 13.6408462,22.1015913 C14.4404615,21.3667596 15.4629327,20.9995288 16.7082596,20.9995288 C17.5600721,20.9995288 18.3611683,21.1857356 19.1126587,21.5592596 C19.864149,21.9331538 20.5005096,22.4695625 21.022851,23.1684856" id="Fill-6"></path>
                    <path d="M32.0601346,22.1093654 L35.3504038,22.1093654 L35.3504038,34.449726 L32.0601346,34.449726 L32.0601346,33.0633558 C31.4182212,33.6745433 30.7740865,34.1139615 30.1277308,34.3834615 C29.4817452,34.6522212 28.7813413,34.7873413 28.0272596,34.7873413 C26.334,34.7873413 24.869149,34.13025 23.6327067,32.8164375 C22.3970048,31.502625 21.7791538,29.8697067 21.7791538,27.9169423 C21.7791538,25.8919904 22.3770144,24.2331587 23.5731058,22.9397067 C24.7684567,21.6458846 26.2210913,20.9995288 27.9310096,20.9995288 C28.7176683,20.9995288 29.4554615,21.1476058 30.1462404,21.4452404 C30.8359087,21.7425048 31.47375,22.1885865 32.0601346,22.7831154 L32.0601346,22.1093654 L32.0601346,22.1093654 Z M28.6014279,24.0365865 C27.5837692,24.0365865 26.7389904,24.3960433 26.0667212,25.1153269 C25.3940817,25.8342404 25.0572067,26.7560192 25.0572067,27.8810337 C25.0572067,29.0138221 25.3996346,29.9463365 26.0844904,30.6774663 C26.768976,31.4085962 27.6119038,31.773976 28.6129038,31.773976 C29.6461106,31.773976 30.5027356,31.4145192 31.1835192,30.6956058 C31.8643029,29.9766923 32.2045096,29.0341827 32.2045096,27.8691875 C32.2045096,26.7278846 31.8643029,25.8042548 31.1835192,25.0971875 C30.5027356,24.3904904 29.6424087,24.0365865 28.6014279,24.0365865 L28.6014279,24.0365865 Z" id="Fill-7"></path>
                    <path d="M39.4206683,16.7897019 L39.4206683,22.7831154 C40.0151971,22.1885865 40.6582212,21.7425048 41.349,21.4452404 C42.0397788,21.1476058 42.7790529,20.9995288 43.5668221,20.9995288 C45.2782212,20.9995288 46.7323365,21.6458846 47.9295385,22.9397067 C49.1271106,24.2331587 49.7253413,25.8919904 49.7253413,27.9169423 C49.7253413,29.8697067 49.10675,31.502625 47.8695673,32.8164375 C46.6316442,34.13025 45.1656827,34.7873413 43.4702019,34.7873413 C42.7150096,34.7873413 42.0120144,34.6522212 41.3612163,34.3834615 C40.7104183,34.1139615 40.0633221,33.6745433 39.4206683,33.0633558 L39.4206683,34.449726 L36.1544615,34.449726 L36.1544615,16.7897019 L39.4206683,16.7897019 L39.4206683,16.7897019 Z M42.8797452,24.0365865 C41.8432067,24.0365865 40.98325,24.3904904 40.3002452,25.0971875 C39.6176106,25.8042548 39.2759231,26.7278846 39.2759231,27.8691875 C39.2759231,29.0341827 39.6176106,29.9766923 40.3002452,30.6956058 C40.98325,31.4145192 41.8432067,31.773976 42.8797452,31.773976 C43.8840769,31.773976 44.7299663,31.4085962 45.4166731,30.6774663 C46.10375,29.9463365 46.4472885,29.0138221 46.4472885,27.8810337 C46.4472885,26.7560192 46.1100433,25.8342404 45.4348125,25.1153269 C44.7599519,24.3960433 43.9081394,24.0365865 42.8797452,24.0365865 L42.8797452,24.0365865 Z" id="Fill-8"></path>
                    <path d="M55.0224231,16.7897019 L58.3126923,16.7897019 L58.3126923,34.4493558 L55.0224231,34.4493558 L55.0224231,16.7897019 Z" id="Fill-9"></path>
                    <path d="M59.1907885,16.7897019 L62.4810577,16.7897019 L62.4810577,34.4493558 L59.1907885,34.4493558 L59.1907885,16.7897019 Z" id="Fill-10"></path>
                    <path d="M73.6564231,22.1093654 L76.9466923,22.1093654 L76.9466923,34.449726 L73.6564231,34.449726 L73.6564231,33.0633558 C73.0137692,33.6745433 72.3696346,34.1139615 71.7243894,34.3834615 C71.0776635,34.6522212 70.3776298,34.7873413 69.6235481,34.7873413 C67.9299183,34.7873413 66.4650673,34.13025 65.2293654,32.8164375 C63.9932933,31.502625 63.3754423,29.8697067 63.3754423,27.9169423 C63.3754423,25.8919904 63.9733029,24.2331587 65.1693942,22.9397067 C66.3651154,21.6458846 67.8173798,20.9995288 69.5269279,20.9995288 C70.3135865,20.9995288 71.0513798,21.1476058 71.7417885,21.4452404 C72.4321971,21.7425048 73.0700385,22.1885865 73.6564231,22.7831154 L73.6564231,22.1093654 L73.6564231,22.1093654 Z M70.196976,24.0365865 C69.1800577,24.0365865 68.3352788,24.3960433 67.6626394,25.1153269 C66.99,25.8342404 66.6538654,26.7560192 66.6538654,27.8810337 C66.6538654,29.0138221 66.9959231,29.9463365 67.6807788,30.6774663 C68.3656346,31.4085962 69.2078221,31.773976 70.2091923,31.773976 C71.2420288,31.773976 72.099024,31.4145192 72.7798077,30.6956058 C73.4602212,29.9766923 73.8007981,29.0341827 73.8007981,27.8691875 C73.8007981,26.7278846 73.4602212,25.8042548 72.7798077,25.0971875 C72.099024,24.3904904 71.2379567,24.0365865 70.196976,24.0365865 L70.196976,24.0365865 Z" id="Fill-11"></path>
                    <path d="M52.2419087,23.4031875 C51.3330865,23.4031875 50.5964038,24.1395 50.5964038,25.0483221 L50.5964038,34.449726 L53.8866731,34.449726 L53.8866731,25.0483221 C53.8866731,24.1395 53.1499904,23.4031875 52.2419087,23.4031875" id="Fill-12"></path>
                    <path d="M50.9988029,16.2743942 C51.8124856,16.2743942 52.5088173,16.5694375 53.0907596,17.1580433 C53.6723317,17.746649 53.9636731,18.4603798 53.9636731,19.298125 C53.9636731,20.1251346 53.6752933,20.830351 53.0989038,21.4134038 C52.523625,21.9968269 51.8343269,22.2885385 51.0328606,22.2885385 C50.2088125,22.2885385 49.5054471,21.9909038 48.923875,21.396375 C48.3419327,20.8018462 48.0513317,20.0799712 48.0513317,19.2300096 C48.0513317,18.4148462 48.3389712,17.7185144 48.9146202,17.1410144 C49.4906394,16.5631442 50.1858606,16.2743942 50.9988029,16.2743942" id="Fill-13"></path>
                </g>
            </g>
        </g>
    </g>
</svg>